<svg xmlns="http://www.w3.org/2000/svg" xmlns:xlink="http://www.w3.org/1999/xlink" xml:space="preserve" version="1.1" style="shape-rendering:geometricPrecision;text-rendering:geometricPrecision;image-rendering:optimizeQuality;" viewBox="0 0 287 416.25" x="0px" y="0px" fill-rule="evenodd" clip-rule="evenodd"><defs><style type="text/css">
   
    .fil0 {fill:black;fill-rule:nonzero}
   
  </style></defs><g><path class="fil0" d="M185 177l0 23c26,13 95,43 102,73l0 60 -13 0 0 -59c-15,-25 -63,-47 -90,-59 -3,22 -16,44 -40,44 -24,0 -38,-22 -41,-44 -26,13 -75,33 -90,59l0 59 -13 0 0 -60c7,-30 76,-60 102,-73l0 -23c-61,-49 -38,-177 42,-177 82,0 100,130 41,177zm-69 9l0 8c0,19 2,51 28,51 25,0 27,-32 27,-51l0 -8c-17,8 -38,8 -55,0zm-29 -122l45 0 8 -37 25 38 36 0c-8,-25 -29,-50 -57,-50 -29,0 -49,24 -57,49zm117 16l-47 0 -10 -16 -3 15 -61 0c-1,5 -1,11 -1,17 0,106 123,106 123,0 0,-6 0,-11 -1,-16z"/></g><text x="0" y="348" fill="#000000" font-size="5px" font-weight="bold" font-family="'Helvetica Neue', Helvetica, Arial-Unicode, Arial, Sans-serif">Created by Zahroe</text><text x="0" y="353" fill="#000000" font-size="5px" font-weight="bold" font-family="'Helvetica Neue', Helvetica, Arial-Unicode, Arial, Sans-serif">from the Noun Project</text></svg>